<svg width="233" height="233" viewBox="0 0 233 233" fill="none" xmlns="http://www.w3.org/2000/svg">
<g filter="url(#filter0_d_222_2312)">
<circle cx="116.5" cy="112.5" r="72.5" fill="white" fill-opacity="0.05" shape-rendering="crispEdges"/>
</g>
<g filter="url(#filter1_d_222_2312)">
<circle cx="116.5" cy="112.5" r="39.5" fill="white"/>
</g>
<path d="M113.256 65.0284C128.624 64.7628 144.268 66.3111 158.745 71.7321C159.79 72.1725 160.919 72.4906 161.852 73.1546C162.817 74.3779 162.572 76.0486 162.583 77.4991C162.404 80.8754 161.866 84.2203 161.527 87.5826C160.702 98.8965 160.112 110.224 159.381 121.545C158.728 130.115 157.197 138.916 152.643 146.354C148.102 153.61 141.011 158.789 133.692 162.984C130.312 164.661 126.911 166.29 123.486 167.866C121.728 168.583 119.945 169.296 118.079 169.68C115.688 170.163 113.385 169.125 111.214 168.265C104.035 165.203 96.9158 161.746 90.7853 156.853C86.8148 153.711 83.386 149.898 80.6423 145.648C78.2167 141.834 76.7208 137.497 75.826 133.086C74.2532 125.498 74.3126 117.714 73.5297 110.036C73.0788 98.3477 72.205 86.6704 71.0062 75.0385C70.9013 73.644 72.1456 72.7177 73.327 72.3228C86.0004 67.3038 99.7014 65.4408 113.256 65.0284ZM73.9421 75.1609C74.8299 84.3426 75.5674 93.5454 76.0847 102.755C85.221 102.759 94.3573 102.755 103.494 102.755C103.497 91.3259 103.49 79.8968 103.497 68.4711C93.4206 69.4323 83.3581 71.3651 73.9421 75.1609ZM130.214 68.4537C130.214 79.8863 130.211 91.319 130.214 102.755C139.361 102.759 148.508 102.755 157.655 102.755C158.088 95.9605 158.364 89.145 159.234 82.3888C159.5 79.9982 159.85 77.604 159.675 75.1923C150.304 71.3372 140.263 69.4043 130.214 68.4537ZM125.384 105.457C125.384 110.35 125.384 115.243 125.384 120.137C126.782 120.137 128.18 120.137 129.578 120.137C129.578 115.243 129.578 110.35 129.578 105.457C128.18 105.457 126.782 105.457 125.384 105.457ZM139.532 107.743C136.995 110.336 136.809 114.817 139.092 117.63C142.119 121.44 148.609 121.454 151.776 117.802C150.912 117.005 150.039 116.218 149.168 115.432C147.868 116.893 145.715 117.592 143.88 116.732C140.941 115.436 140.899 110.574 143.789 109.197C145.635 108.274 147.844 108.969 149.168 110.455C150.039 109.665 150.912 108.882 151.776 108.082C148.756 104.587 142.744 104.461 139.532 107.743ZM84.7911 105.677C84.7911 110.521 84.7911 115.366 84.7911 120.213C88.6777 120.213 92.5678 120.213 96.4544 120.21C96.4544 119.151 96.4544 118.095 96.4579 117.036C93.9239 117.033 91.3899 117.036 88.8559 117.033C88.9713 116.183 88.5868 115.124 89.0936 114.411C91.1627 114.317 93.2389 114.408 95.315 114.38C95.315 113.352 95.315 112.328 95.315 111.304C93.2249 111.269 91.1278 111.367 89.0377 111.266C88.6497 110.581 88.9468 109.634 88.8525 108.854C91.2991 108.847 93.7457 108.858 96.1923 108.847C96.1853 107.792 96.1853 106.733 96.1853 105.677C92.3895 105.677 88.5903 105.677 84.7911 105.677ZM104.532 120.21C105.902 120.213 107.272 120.213 108.642 120.21C108.642 118.945 108.639 117.679 108.649 116.418C110.973 116.393 113.577 116.659 115.562 115.198C118.247 113.429 118.334 108.956 115.779 107.04C114.475 105.953 112.71 105.698 111.068 105.674C108.89 105.67 106.713 105.681 104.535 105.677C104.528 110.521 104.535 115.366 104.532 120.21ZM83.3126 122.58C83.4664 122.712 83.7775 122.975 83.9313 123.107C83.8998 124.362 83.9068 125.62 83.9138 126.875C83.774 127.018 83.4944 127.302 83.3546 127.441C83.9767 127.438 84.5954 127.445 85.214 127.455C85.0357 127.354 84.6722 127.155 84.4905 127.057C84.4975 126.403 84.501 125.75 84.5045 125.1C85.3258 125.089 86.1437 125.079 86.9616 125.072C86.8812 125.879 87.1678 126.868 86.4268 127.455C86.9721 127.448 87.5208 127.459 88.0695 127.49C86.9686 126.351 87.769 124.554 87.5278 123.135C87.6606 122.992 87.9332 122.702 88.0695 122.555C87.4509 122.559 86.8323 122.566 86.2136 122.573C86.3954 122.663 86.7554 122.849 86.9371 122.94C86.9371 123.555 86.9371 124.173 86.9371 124.792C86.1123 124.792 85.2909 124.792 84.466 124.792C84.5324 124.009 84.3227 123.083 85.0218 122.52C84.4521 122.545 83.8823 122.562 83.3126 122.58ZM96.9892 122.538C97.1465 122.653 97.4645 122.88 97.6253 122.992C97.5729 124.457 98.1356 126.239 97.1744 127.473C98.3558 127.403 99.5371 127.41 100.718 127.417C100.743 126.928 100.774 126.438 100.809 125.949C100.579 126.312 100.379 126.693 100.103 127.025C99.5022 127.162 98.88 127.148 98.2719 127.197C98.2719 126.438 98.2754 125.68 98.2859 124.921C99.0094 124.837 99.5546 125.145 99.8727 125.781C99.8237 125.17 99.8028 124.558 99.7923 123.946C99.5476 124.645 99.0373 124.914 98.2614 124.754C98.2754 124.107 98.2964 123.457 98.3348 122.81C98.908 122.824 99.4812 122.849 100.054 122.884C100.17 123.17 100.4 123.743 100.516 124.03C100.512 123.541 100.502 123.048 100.495 122.559C99.3274 122.559 98.1566 122.573 96.9892 122.538ZM109.463 127.445C109.816 127.459 110.522 127.483 110.875 127.497C110.201 127.13 110.407 126.505 110.596 125.917C111.228 125.903 111.865 125.89 112.497 125.876C112.626 126.424 112.84 127.029 112.294 127.438C112.843 127.441 113.392 127.462 113.941 127.497C112.752 125.984 112.49 123.978 111.641 122.279C110.844 123.971 110.61 125.935 109.463 127.445ZM122.497 122.548C122.63 122.67 122.899 122.919 123.035 123.044C123.206 124.317 123.063 125.62 123.105 126.907C122.958 127.039 122.668 127.305 122.525 127.438C123.682 127.424 124.839 127.41 125.995 127.417C126.034 126.872 126.076 126.326 126.118 125.785C125.852 126.201 125.733 126.739 125.338 127.06C124.793 127.13 124.248 127.176 123.699 127.2C123.919 125.673 123.157 123.799 124.23 122.531C123.65 122.545 123.074 122.552 122.497 122.548ZM134.436 124.201C134.646 123.321 135.107 122.646 136.121 122.723C135.939 124.264 136.645 126.145 135.625 127.438C136.205 127.438 136.788 127.445 137.372 127.487C137.222 127.347 136.921 127.067 136.771 126.928C136.656 125.526 136.754 124.11 136.754 122.705C137.739 122.653 138.183 123.349 138.438 124.177C138.435 123.635 138.428 123.097 138.421 122.559C137.093 122.559 135.764 122.559 134.44 122.559C134.433 123.107 134.429 123.653 134.436 124.201ZM147.312 122.545C147.449 122.67 147.718 122.922 147.851 123.048C148.025 124.324 147.882 125.627 147.921 126.914C147.777 127.039 147.487 127.288 147.34 127.413C147.962 127.427 148.588 127.455 149.21 127.504C148.12 127.162 148.62 125.935 148.497 125.103C149.319 125.089 150.147 125.079 150.972 125.075C150.912 125.886 151.122 126.823 150.479 127.459C151.021 127.452 151.562 127.462 152.104 127.487C151.978 127.347 151.727 127.067 151.601 126.928C151.615 125.488 151.136 123.796 152.01 122.534C151.472 122.545 150.933 122.545 150.399 122.534C151.175 123.048 150.902 124.013 150.968 124.792C150.14 124.792 149.312 124.792 148.483 124.789C148.574 124.023 148.291 123.062 149.053 122.531C148.473 122.545 147.893 122.552 147.312 122.545ZM78.1363 129.745C79.0311 135.631 80.88 141.527 84.5744 146.28C89.3627 152.973 96.2482 157.811 103.497 161.526C103.49 150.932 103.497 140.342 103.494 129.748C95.0424 129.741 86.5876 129.745 78.1363 129.745ZM130.207 129.755C130.221 140.335 130.211 150.915 130.211 161.491C132.748 160.345 135.09 158.831 137.407 157.311C142.423 153.952 147.085 149.866 150.287 144.697C153.023 140.136 154.617 134.966 155.509 129.745C147.075 129.752 138.641 129.731 130.207 129.755Z" fill="#333333"/>
<path d="M108.642 108.938C109.865 108.941 111.138 108.76 112.319 109.162C113.874 109.738 113.874 112.363 112.308 112.929C111.131 113.324 109.862 113.139 108.642 113.157C108.642 111.752 108.642 110.343 108.642 108.938Z" fill="#333333"/>
<path d="M111.519 123.425C111.784 124.156 112.05 124.886 112.319 125.62C111.791 125.62 111.267 125.617 110.743 125.62C110.998 124.886 111.256 124.156 111.519 123.425Z" fill="#333333"/>
<path d="M73.9421 75.161C83.3581 71.3652 93.4206 69.4324 103.497 68.4712C103.49 79.8969 103.497 91.3261 103.494 102.755C94.3573 102.755 85.221 102.759 76.0847 102.755C75.5674 93.5455 74.8299 84.3427 73.9421 75.161Z" fill="#EED23D"/>
<path d="M130.214 68.4537C140.263 69.4043 150.304 71.3372 159.675 75.1923C159.85 77.604 159.5 79.9982 159.234 82.3888C158.364 89.145 158.088 95.9605 157.655 102.755C148.508 102.755 139.361 102.759 130.214 102.755C130.211 91.319 130.214 79.8863 130.214 68.4537Z" fill="#EED23D"/>
<path d="M78.1364 129.745C86.5876 129.745 95.0424 129.741 103.494 129.748C103.497 140.342 103.49 150.932 103.497 161.526C96.2482 157.811 89.3628 152.974 84.5744 146.28C80.88 141.527 79.0311 135.631 78.1364 129.745Z" fill="#EED23D"/>
<path d="M130.207 129.755C138.641 129.731 147.075 129.752 155.509 129.745C154.617 134.967 153.024 140.136 150.287 144.697C147.085 149.866 142.423 153.952 137.407 157.311C135.09 158.831 132.748 160.345 130.211 161.491C130.211 150.915 130.221 140.335 130.207 129.755Z" fill="#EED23D"/>
<defs>
<filter id="filter0_d_222_2312" x="0" y="0" width="233" height="233" filterUnits="userSpaceOnUse" color-interpolation-filters="sRGB">
<feFlood flood-opacity="0" result="BackgroundImageFix"/>
<feColorMatrix in="SourceAlpha" type="matrix" values="0 0 0 0 0 0 0 0 0 0 0 0 0 0 0 0 0 0 127 0" result="hardAlpha"/>
<feOffset dy="4"/>
<feGaussianBlur stdDeviation="22"/>
<feComposite in2="hardAlpha" operator="out"/>
<feColorMatrix type="matrix" values="0 0 0 0 0 0 0 0 0 0 0 0 0 0 0 0 0 0 0.65 0"/>
<feBlend mode="normal" in2="BackgroundImageFix" result="effect1_dropShadow_222_2312"/>
<feBlend mode="normal" in="SourceGraphic" in2="effect1_dropShadow_222_2312" result="shape"/>
</filter>
<filter id="filter1_d_222_2312" x="33" y="33" width="167" height="167" filterUnits="userSpaceOnUse" color-interpolation-filters="sRGB">
<feFlood flood-opacity="0" result="BackgroundImageFix"/>
<feColorMatrix in="SourceAlpha" type="matrix" values="0 0 0 0 0 0 0 0 0 0 0 0 0 0 0 0 0 0 127 0" result="hardAlpha"/>
<feOffset dy="4"/>
<feGaussianBlur stdDeviation="22"/>
<feComposite in2="hardAlpha" operator="out"/>
<feColorMatrix type="matrix" values="0 0 0 0 0 0 0 0 0 0 0 0 0 0 0 0 0 0 0.65 0"/>
<feBlend mode="normal" in2="BackgroundImageFix" result="effect1_dropShadow_222_2312"/>
<feBlend mode="normal" in="SourceGraphic" in2="effect1_dropShadow_222_2312" result="shape"/>
</filter>
</defs>
</svg>
